<?xml version="1.0" encoding="UTF-8"?>
<svg version="1.1" xmlns="http://www.w3.org/2000/svg" width="102" height="100">
<path d="M0 0 C33.66 0 67.32 0 102 0 C102 33 102 66 102 100 C68.34 100 34.68 100 0 100 C0 67 0 34 0 0 Z " fill="#15909A" transform="translate(0,0)"/>
<path d="M0 0 C4.77363658 0.15943383 8.34644558 1.47982403 12.0625 4.4375 C14 7 14 7 14 10 C14.57771652 9.99333817 15.15543304 9.98667633 15.75065613 9.97981262 C21.76901682 9.91339002 27.78727319 9.86817065 33.8059082 9.83520508 C36.05139394 9.82012818 38.29685029 9.79966347 40.54223633 9.77368164 C43.77172099 9.73725082 47.00081594 9.72026245 50.23046875 9.70703125 C51.23272995 9.69154739 52.23499115 9.67606354 53.2676239 9.66011047 C62.14136265 9.65797276 62.14136265 9.65797276 66 13 C66.55859375 15.09375 66.55859375 15.09375 66.4375 17.5 C66.39496094 18.37398437 66.35242188 19.24796875 66.30859375 20.1484375 C65.80303583 24.82004867 64.97819793 29.40596331 64 34 C63.01 34 62.02 34 61 34 C61 35.98 61 37.96 61 40 C60.01 40.495 60.01 40.495 59 41 C60.20381448 43.49361571 61.45428722 45.68143083 63 48 C62.566875 48.61488281 62.13375 49.22976562 61.6875 49.86328125 C61.130625 50.67152344 60.57375 51.47976562 60 52.3125 C59.443125 53.11300781 58.88625 53.91351563 58.3125 54.73828125 C56.74904036 56.99663018 56.74904036 56.99663018 57 60 C49.60985626 61.33264887 49.60985626 61.33264887 46.9375 59.875 C46 58 46 58 46.0625 55.5 C47.16763527 52.55297262 48.35494382 51.62116347 51 50 C49.02 50 47.04 50 45 50 C45 49.01 45 48.02 45 47 C44.29391602 47.02618408 43.58783203 47.05236816 42.86035156 47.0793457 C39.65712792 47.18336357 36.4542594 47.24834149 33.25 47.3125 C31.58324219 47.3753418 31.58324219 47.3753418 29.8828125 47.43945312 C28.27792969 47.46362305 28.27792969 47.46362305 26.640625 47.48828125 C25.16384277 47.52755737 25.16384277 47.52755737 23.65722656 47.56762695 C21 47 21 47 18.74951172 44.92871094 C16.67897782 41.46260367 16.03909026 38.63079388 15.3671875 34.65234375 C15.24441437 33.95863174 15.12164124 33.26491974 14.99514771 32.55018616 C14.60752239 30.34814414 14.24011388 28.14337628 13.875 25.9375 C13.49968779 23.72874669 13.12002355 21.52090912 12.73342896 19.31410217 C12.38466931 17.31504767 12.04915985 15.3136949 11.71435547 13.31225586 C11.1046575 10.48526601 10.61103814 8.38373842 9 6 C6.44480079 5.18828772 6.44480079 5.18828772 4 5 C4 5.66 4 6.32 4 7 C2.35 6.67 0.7 6.34 -1 6 C-1.625 4.125 -1.625 4.125 -2 2 C-1.34 1.34 -0.68 0.68 0 0 Z " fill="#158B94" transform="translate(17,22)"/>
<path d="M0 0 C4.77363658 0.15943383 8.34644558 1.47982403 12.0625 4.4375 C14 7 14 7 14 10 C14.57771652 9.99333817 15.15543304 9.98667633 15.75065613 9.97981262 C21.76901682 9.91339002 27.78727319 9.86817065 33.8059082 9.83520508 C36.05139394 9.82012818 38.29685029 9.79966347 40.54223633 9.77368164 C43.77172099 9.73725082 47.00081594 9.72026245 50.23046875 9.70703125 C51.23272995 9.69154739 52.23499115 9.67606354 53.2676239 9.66011047 C62.14136265 9.65797276 62.14136265 9.65797276 66 13 C66.55859375 15.09375 66.55859375 15.09375 66.4375 17.5 C66.39496094 18.37398437 66.35242188 19.24796875 66.30859375 20.1484375 C65.80303583 24.82004867 64.97819793 29.40596331 64 34 C62.515 33.505 62.515 33.505 61 33 C61.165 31.906875 61.33 30.81375 61.5 29.6875 C62.05491311 24.48518962 62 19.23182203 62 14 C46.49 13.67 30.98 13.34 15 13 C16.64206766 20.43496686 16.64206766 20.43496686 18.29101562 27.8684082 C18.49404297 28.79484131 18.69707031 29.72127441 18.90625 30.67578125 C19.11572266 31.62364502 19.32519531 32.57150879 19.54101562 33.5480957 C20 36 20 36 20 39 C21.299375 38.7525 21.299375 38.7525 22.625 38.5 C28.69761822 37.60733769 34.87966132 37.92360188 41 38 C41.33 38.99 41.66 39.98 42 41 C34.97195301 41.85373239 28.07721931 42.12109311 21 42 C21.33 42.66 21.66 43.32 22 44 C28.93 44.33 35.86 44.66 43 45 C43.33 45.66 43.66 46.32 44 47 C40.25040783 47.14528105 36.50153895 47.23406281 32.75 47.3125 C31.68652344 47.35439453 30.62304688 47.39628906 29.52734375 47.43945312 C28.50253906 47.45556641 27.47773437 47.47167969 26.421875 47.48828125 C25.47924805 47.51446533 24.53662109 47.54064941 23.56542969 47.56762695 C21 47 21 47 18.76318359 44.92871094 C16.6759969 41.46181928 16.04057269 38.6395716 15.3671875 34.65234375 C15.24441437 33.95863174 15.12164124 33.26491974 14.99514771 32.55018616 C14.60752239 30.34814414 14.24011388 28.14337628 13.875 25.9375 C13.49968779 23.72874669 13.12002355 21.52090912 12.73342896 19.31410217 C12.38466931 17.31504767 12.04915985 15.3136949 11.71435547 13.31225586 C11.1046575 10.48526601 10.61103814 8.38373842 9 6 C6.44480079 5.18828772 6.44480079 5.18828772 4 5 C4 5.66 4 6.32 4 7 C2.35 6.67 0.7 6.34 -1 6 C-1.625 4.125 -1.625 4.125 -2 2 C-1.34 1.34 -0.68 0.68 0 0 Z " fill="#1E2E2C" transform="translate(17,22)"/>
<path d="M0 0 C4.86872054 0.59559106 8.59328841 2.72477415 12.8125 5.0625 C13.50537109 5.43955078 14.19824219 5.81660156 14.91210938 6.20507812 C16.61128985 7.13083852 18.30609425 8.06462312 20 9 C20 9.99 20 10.98 20 12 C19.01 12.66 18.02 13.32 17 14 C18.0209375 15.11375 18.0209375 15.11375 19.0625 16.25 C21 19 21 19 21 21.1875 C19.72074209 23.50615495 18.43003677 24.0593406 16 25 C12 20.25 12 20.25 12 18 C11.071875 18.99 11.071875 18.99 10.125 20 C8 22 8 22 6 22 C4.99009308 19.08666921 3.99384048 16.16884681 3 13.25 C2.71382812 12.425 2.42765625 11.6 2.1328125 10.75 C1.86210938 9.95078125 1.59140625 9.1515625 1.3125 8.328125 C1.06113281 7.5949707 0.80976562 6.86181641 0.55078125 6.10644531 C0 4 0 4 0 0 Z " fill="#1E2C29" transform="translate(57,48)"/>
<path d="M0 0 C2.15141991 3.84038507 3.33723494 7.93976355 4.625 12.125 C4.96917969 13.21748047 4.96917969 13.21748047 5.3203125 14.33203125 C7 19.74102493 7 19.74102493 7 22 C7.61875 21.34 8.2375 20.68 8.875 20 C11 18 11 18 13 18 C14.38938077 19.96147874 15.7260411 21.96166576 17 24 C19.46800047 22.84826645 21.04783565 21.95216435 23 20 C23 23.99874014 21.29449799 25.83473629 19.09375 29.0625 C17.75420282 31.06459491 17.75420282 31.06459491 18 34 C10.60985626 35.33264887 10.60985626 35.33264887 7.9375 33.875 C7 32 7 32 7.0625 29.5 C8.16763527 26.55297262 9.35494382 25.62116347 12 24 C10.02 24 8.04 24 6 24 C5.34 22.68 4.68 21.36 4 20 C-2.93 19.67 -9.86 19.34 -17 19 C-17.33 18.01 -17.66 17.02 -18 16 C-11.4 15.34 -4.8 14.68 2 14 C0.42163702 10.31622777 0.42163702 10.31622777 -1 9 C-1.99 9.495 -1.99 9.495 -3 10 C-2.67 8.35 -2.34 6.7 -2 5 C-1.34 5 -0.68 5 0 5 C0 3.35 0 1.7 0 0 Z " fill="#167D85" transform="translate(56,48)"/>
<path d="M0 0 C4.8274799 1.41292095 8.7162359 3.42974154 13 6 C12.01 6.33 11.02 6.66 10 7 C10.639375 8.0725 11.27875 9.145 11.9375 10.25 C13.40601273 12.80822182 14.52854542 15.05340886 15 18 C10.125 13.375 10.125 13.375 9 10 C8.01 10 7.02 10 6 10 C5.34 11.32 4.68 12.64 4 14 C3.32968281 12.0429132 2.66385317 10.08428887 2 8.125 C1.62875 7.03445312 1.2575 5.94390625 0.875 4.8203125 C0 2 0 2 0 0 Z " fill="#178B94" transform="translate(60,52)"/>
<path d="M0 0 C4.55555556 0.55555556 4.55555556 0.55555556 6 2 C6.1875 4.9375 6.1875 4.9375 6 8 C5.34 8.66 4.68 9.32 4 10 C0.70285207 9.67028521 -0.6226839 9.3773161 -3 7 C-2.67028521 3.70285207 -2.3773161 2.3773161 0 0 Z " fill="#1E2C28" transform="translate(66,73)"/>
<path d="M0 0 C2.5625 0.1875 2.5625 0.1875 4.5625 2.1875 C4.1875 5.3125 4.1875 5.3125 3.5625 8.1875 C1.25 8.875 1.25 8.875 -1.4375 9.1875 C-3.3125 8.0625 -3.3125 8.0625 -4.4375 6.1875 C-3.87661439 0.29820111 -3.87661439 0.29820111 0 0 Z " fill="#1E595A" transform="translate(41.4375,73.8125)"/>
<path d="M0 0 C0 0.99 0 1.98 0 3 C-7.26 3 -14.52 3 -22 3 C-22 2.34 -22 1.68 -22 1 C-14.63959083 0.20274098 -7.40239645 -0.12886183 0 0 Z " fill="#168F98" transform="translate(60,63)"/>
<path d="M0 0 C0.33 0 0.66 0 1 0 C1.99 5.61 2.98 11.22 4 17 C3.01 17 2.02 17 1 17 C-2.07167235 11.71672355 -2.07167235 11.71672355 -1.75 8.5 C-1.5025 7.675 -1.255 6.85 -1 6 C-0.66055205 4.00102872 -0.32578384 2.00124361 0 0 Z " fill="#198B92" transform="translate(31,48)"/>
<path d="M0 0 C0.66 0.66 1.32 1.32 2 2 C1.3503125 2.92232422 1.3503125 2.92232422 0.6875 3.86328125 C0.130625 4.67152344 -0.42625 5.47976562 -1 6.3125 C-1.556875 7.11300781 -2.11375 7.91351563 -2.6875 8.73828125 C-4.25095964 10.99663018 -4.25095964 10.99663018 -4 14 C-4.99 13.67 -5.98 13.34 -7 13 C-6.95875 12.113125 -6.9175 11.22625 -6.875 10.3125 C-6.99897246 7.02722987 -7.61387904 4.94550705 -9 2 C-8.01 2 -7.02 2 -6 2 C-5.67 2.66 -5.34 3.32 -5 4 C-1.87802522 2.6910428 -1.87802522 2.6910428 0 0 Z " fill="#16848F" transform="translate(78,68)"/>
<path d="M0 0 C3 3 3 3 3.109375 5.77734375 C2.99078125 6.82019531 2.8721875 7.86304688 2.75 8.9375 C2.64171875 9.97777344 2.5334375 11.01804687 2.421875 12.08984375 C2.07819711 14.46058472 1.6438392 16.69660974 1 19 C0.01 18.67 -0.98 18.34 -2 18 C-1.34 12.06 -0.68 6.12 0 0 Z " fill="#1E312F" transform="translate(80,37)"/>
<path d="M0 0 C2.62113708 0 4.50935112 0.31292445 7 1 C6.814375 1.61875 6.62875 2.2375 6.4375 2.875 C5.76313824 5.04160178 5.76313824 5.04160178 7 7 C2.25 6.25 2.25 6.25 0 4 C0 2.68 0 1.36 0 0 Z " fill="#1D5B5D" transform="translate(63,76)"/>
<path d="M0 0 C0.33 0 0.66 0 1 0 C1 1.65 1 3.3 1 5 C4.96 5 8.92 5 13 5 C13 5.33 13 5.66 13 6 C9.37 6 5.74 6 2 6 C2.33 6.99 2.66 7.98 3 9 C2.01 9 1.02 9 0 9 C-0.66 7.35 -1.32 5.7 -2 4 C-1.34 4 -0.68 4 0 4 C0 2.68 0 1.36 0 0 Z " fill="#1D3B3A" transform="translate(36,58)"/>
<path d="M0 0 C2.51926901 4.87058675 3.10395221 8.49053291 3 14 C2.525625 13.360625 2.05125 12.72125 1.5625 12.0625 C0.16261274 10.11706694 0.16261274 10.11706694 -1 9 C-1.99 9.495 -1.99 9.495 -3 10 C-2.67 8.35 -2.34 6.7 -2 5 C-1.34 5 -0.68 5 0 5 C0 3.35 0 1.7 0 0 Z " fill="#18767B" transform="translate(56,48)"/>
<path d="M0 0 C2.5625 0.1875 2.5625 0.1875 4.5625 2.1875 C4.1875 4.3125 4.1875 4.3125 3.5625 6.1875 C2.9025 5.1975 2.2425 4.2075 1.5625 3.1875 C0.5725 3.1875 -0.4175 3.1875 -1.4375 3.1875 C-1.7675 4.5075 -2.0975 5.8275 -2.4375 7.1875 C-3.0975 6.8575 -3.7575 6.5275 -4.4375 6.1875 C-3.3735 0.2595 -3.3735 0.2595 0 0 Z " fill="#1D2723" transform="translate(41.4375,73.8125)"/>
<path d="M0 0 C0.66 0 1.32 0 2 0 C3.28317892 3.84953676 3.06643637 6.94738135 3 11 C2.34 11 1.68 11 1 11 C-0.17571451 7.32589215 -0.07366746 3.83070817 0 0 Z " fill="#1E2724" transform="translate(33,51)"/>
<path d="M0 0 C0.61875 0.78375 1.2375 1.5675 1.875 2.375 C3.89858661 4.96837647 3.89858661 4.96837647 6 7 C5.67 7.99 5.34 8.98 5 10 C0 4.5 0 4.5 0 0 Z " fill="#1F7D84" transform="translate(69,60)"/>
<path d="M0 0 C-0.33 1.32 -0.66 2.64 -1 4 C-2.875 4.625 -2.875 4.625 -5 5 C-5.66 4.34 -6.32 3.68 -7 3 C-2.25 0 -2.25 0 0 0 Z " fill="#176D72" transform="translate(67,45)"/>
</svg>
